<?xml version="1.0" encoding="utf-8"?>
<!-- Generator: Adobe Illustrator 21.0.0, SVG Export Plug-In . SVG Version: 6.00 Build 0)  -->
<svg version="1.1" id="Warstwa_1" xmlns="http://www.w3.org/2000/svg" xmlns:xlink="http://www.w3.org/1999/xlink" x="0px" y="0px"
	 viewBox="0 0 213.7 60" style="enable-background:new 0 0 213.7 60;" xml:space="preserve">
<style type="text/css">
	.st0{fill-rule:evenodd;clip-rule:evenodd;fill:#676867;}
	.st1{fill-rule:evenodd;clip-rule:evenodd;fill:#DC2F34;}
	.st2{fill-rule:evenodd;clip-rule:evenodd;fill:#FFFFFF;}
</style>
<g>
	<polygon class="st0" points="213.7,9.8 213.7,9.7 212.3,9.7 211.2,13.4 210,9.7 208.6,9.7 208.6,9.8 209.3,9.8 209.3,14.6 
		208.6,14.6 208.6,14.7 210.1,14.7 210.1,14.6 209.4,14.6 209.4,10 210.9,14.8 212.4,10 212.4,14.6 211.7,14.6 211.7,14.7 
		213.7,14.7 213.7,14.6 213.1,14.6 213.1,9.8 	"/>
	<path class="st0" d="M204.3,11h0.1c0.1-0.3,0.2-0.5,0.3-0.7c0.1-0.2,0.2-0.3,0.3-0.4c0.1-0.1,0.2-0.1,0.3-0.1c0.1,0,0.2,0,0.3,0
		h0.3v4.8h-0.7v0.1h2v-0.1h-0.7V9.8h0.3c0.1,0,0.2,0,0.3,0c0.1,0,0.2,0.1,0.3,0.1c0.1,0.1,0.2,0.2,0.3,0.4c0.1,0.2,0.2,0.4,0.3,0.7
		h0.1V9.7h-3.9V11z"/>
	<rect x="65.3" y="36.1" class="st0" width="148.5" height="0.5"/>
	<path class="st0" d="M102.6,45.3c-0.7-0.3-1-0.5-1-1c0-0.4,0.3-0.8,0.9-0.8c0.4,0,0.8,0.2,0.9,0.3l0.2-0.6
		c-0.2-0.1-0.6-0.3-1.1-0.3c-1,0-1.6,0.6-1.6,1.5c0,0.8,0.5,1.2,1.3,1.5c0.7,0.3,0.9,0.6,0.9,1.1c0,0.5-0.4,0.9-1,0.9
		c-0.4,0-0.9-0.2-1.1-0.4l-0.2,0.6c0.3,0.2,0.8,0.3,1.2,0.3c1.2,0,1.7-0.7,1.7-1.6C103.8,46.1,103.4,45.7,102.6,45.3 M110.3,47.8
		l2.7-4.4V43h-3.3v0.6h2.5v0l-2.7,4.4v0.4h3.6v-0.6L110.3,47.8L110.3,47.8z M118.3,43.6h1.5v4.8h0.6v-4.8h1.5V43h-3.6L118.3,43.6
		L118.3,43.6z M128.4,43l-1.7,5.4h0.7l0.5-1.7h1.7l0.5,1.7h0.7l-1.7-5.4H128.4z M128,46.2l0.5-1.6c0.1-0.3,0.2-0.7,0.2-1h0
		c0.1,0.3,0.1,0.6,0.3,1l0.5,1.6H128z M139.7,45.3c0,0.8,0,1.5,0.1,2.2l0,0c-0.2-0.6-0.5-1.1-0.9-1.8l-1.6-2.8h-0.7v5.4h0.6v-2.3
		c0-0.9,0-1.6-0.1-2.2l0,0c0.2,0.6,0.6,1.2,0.9,1.8l1.6,2.8h0.6V43h-0.6L139.7,45.3L139.7,45.3z M147.8,42.9c-0.5,0-1,0-1.3,0.1v5.4
		c0.3,0,0.7,0.1,1.1,0.1c1,0,1.7-0.3,2.2-0.8c0.5-0.5,0.7-1.2,0.7-2.1c0-0.9-0.3-1.5-0.7-2C149.4,43.2,148.7,42.9,147.8,42.9
		 M147.7,47.9c-0.2,0-0.5,0-0.6,0v-4.3c0.2,0,0.4-0.1,0.7-0.1c1.3,0,2,0.8,2,2.1C149.8,47.1,149.1,47.9,147.7,47.9 M157.6,43
		l-1.7,5.4h0.7l0.5-1.7h1.7l0.5,1.7h0.7l-1.7-5.4H157.6z M157.2,46.2l0.5-1.6c0.1-0.3,0.2-0.7,0.2-1h0c0.1,0.3,0.1,0.6,0.3,1
		l0.5,1.6H157.2z M167.9,45.8L167.9,45.8c0.5-0.2,0.9-0.7,0.9-1.4c0-0.4-0.1-0.8-0.4-1c-0.3-0.3-0.7-0.4-1.4-0.4
		c-0.4,0-0.9,0-1.2,0.1v5.4h0.6v-2.4h0.6c0.6,0,0.8,0.3,1,1.1c0.1,0.7,0.2,1.1,0.3,1.3h0.7c-0.1-0.2-0.2-0.7-0.4-1.5
		C168.5,46.4,168.3,46,167.9,45.8 M167.1,45.5h-0.6v-2c0.1,0,0.3-0.1,0.6-0.1c0.7,0,1.1,0.3,1.1,1C168.2,45.1,167.8,45.5,167.1,45.5
		 M177.4,43l-0.7,1.5c-0.2,0.4-0.4,0.8-0.5,1.1h0c-0.2-0.4-0.3-0.7-0.5-1.1L175,43h-0.7l1.5,3.1v2.3h0.6v-2.3l1.6-3.1H177.4z"/>
	<path class="st0" d="M192.9,21.6l2.8-8.2l2.8,8.2H192.9z M204.1,29.8l-6.9-20.3h-0.6l-6.9,20.3h-2.2v0.4h5.5v-0.4h-2.8l2.7-7.9h5.9
		l2.7,7.9h-2.8v0.4h7.9v-0.4H204.1z M179.7,10.5h2.8v15h-0.1l-8.6-15.4h-5.5v0.4h2.8v19.4h-2.8v0.4h6v-0.4h-2.8V11.6h0.1l10.7,19
		h0.5V10.5h2.8v-0.4h-6V10.5z M156.3,10.5h2.8v19.4h-2.8v0.4h8.2v-0.4h-2.8V10.5h2.8v-0.4h-8.2V10.5z M136.4,15.2h0.3
		c0.3-1.2,0.6-2.1,1-2.7c0.4-0.7,0.8-1.1,1.2-1.4c0.4-0.3,0.9-0.5,1.3-0.6c0.4-0.1,0.8-0.1,1.1-0.1h1.5v19.4H140v0.4h8.2v-0.4h-2.8
		V10.5h1.5c0.3,0,0.7,0,1.1,0.1c0.4,0.1,0.9,0.3,1.3,0.6c0.4,0.3,0.9,0.8,1.2,1.4c0.4,0.7,0.7,1.6,1,2.7h0.3v-5.2h-15.5V15.2z
		 M116.6,10.5h2.8v19.4h-2.8v0.4h8.2v-0.4H122V20h2.1c0.6,0,1.1,0.1,1.5,0.4c0.4,0.2,0.7,0.6,0.9,0.9c0.2,0.4,0.4,0.9,0.5,1.4
		c0.1,0.5,0.3,1,0.4,1.6h0.3v-8.8h-0.3c-0.2,0.9-0.4,1.5-0.6,2.1c-0.2,0.5-0.4,1-0.7,1.3c-0.3,0.3-0.6,0.5-1,0.6
		c-0.4,0.1-0.9,0.2-1.4,0.2H122v-9.2h4.2c0.7,0,1.3,0.1,1.8,0.3c0.5,0.2,0.9,0.5,1.3,0.9c0.4,0.4,0.7,0.9,0.9,1.4
		c0.3,0.6,0.5,1.2,0.7,1.9h0.3v-4.9h-14.6V10.5z M99.9,21.6l2.8-8.2l2.8,8.2H99.9z M104.1,9.5h-0.6l-6.9,20.3h-2.2v0.4h5.5v-0.4H97
		l2.7-7.9h5.9l2.7,7.9h-2.8v0.4h7.9v-0.4h-2.3L104.1,9.5z M82.9,10.5h2.8v9.3h-8.5v-9.3H80v-0.4h-8.2v0.4h2.8v19.4h-2.8v0.4H80v-0.4
		h-2.8v-9.7h8.5v9.7h-2.8v0.4h8.2v-0.4h-2.8V10.5h2.8v-0.4h-8.2V10.5z"/>
	<path class="st1" d="M60,30C60,13.4,46.6,0,30,0C13.4,0,0,13.4,0,30c0,16.6,13.4,30,30,30C46.6,60,60,46.6,60,30"/>
	<polygon class="st2" points="26.5,59.7 10.7,17 8.5,17 24,59.5 26.5,59.9 26.4,59.7 	"/>
	<polygon class="st2" points="36.4,17.5 12.8,17.5 21.4,41.1 45,41.1 	"/>
	<polygon class="st2" points="42.4,19.4 39.1,19.4 46.7,39.6 29.4,39.6 31.1,44.1 51.6,43.7 	"/>
	<path class="st2" d="M10.4,14.1c-0.4-1-1.5-1.9-2.5-1.9c-1,0-1.5,0.8-1.2,1.9c0.4,1,1.5,1.9,2.5,1.9C10.2,16,10.8,15.1,10.4,14.1"
		/>
</g>
<g>
</g>
<g>
</g>
<g>
</g>
<g>
</g>
<g>
</g>
</svg>
