<?xml version="1.0" encoding="utf-8"?>
<!-- Generator: Adobe Illustrator 21.0.0, SVG Export Plug-In . SVG Version: 6.00 Build 0)  -->
<svg version="1.1" id="Warstwa_1" xmlns="http://www.w3.org/2000/svg" xmlns:xlink="http://www.w3.org/1999/xlink" x="0px" y="0px"
	 viewBox="0 0 272.3 60" style="enable-background:new 0 0 272.3 60;" xml:space="preserve">
<style type="text/css">
	.st0{fill-rule:evenodd;clip-rule:evenodd;fill:#8B2A28;}
</style>
<g>
	<path class="st0" d="M260.6,1.7h0.1c0.1-0.4,0.2-0.6,0.3-0.8c0.1-0.2,0.3-0.3,0.4-0.4c0.1-0.1,0.3-0.2,0.4-0.2c0.1,0,0.2,0,0.3,0
		h0.4v5.9h-0.8v0.2h2.5V6.1h-0.8V0.2h0.4c0.1,0,0.2,0,0.3,0c0.1,0,0.3,0.1,0.4,0.2c0.1,0.1,0.3,0.2,0.4,0.4c0.1,0.2,0.2,0.5,0.3,0.8
		h0.1V0h-4.9V1.7z M272.3,0.2V0h-1.7l-1.5,4.7L267.7,0h-1.8v0.2h0.8v5.9h-0.8v0.2h1.8V6.1h-0.8V0.4l1.9,5.9l1.9-6v5.7h-0.8v0.2h2.5
		V6.1h-0.8V0.2H272.3z M249.1,52.8h-1.7c0-0.3,0-0.5,0-0.7c0-0.2,0-0.3-0.1-0.6c0-0.2-0.1-0.4-0.2-0.5c-0.1-0.1-0.2-0.2-0.3-0.2
		c-0.4,0-0.8,0.2-1,0.6c-0.3,0.4-0.5,0.9-0.6,1.4c-0.1,0.5-0.2,1-0.2,1.6v1.6c0,1.1,0.1,2.1,0.2,3.1h1.3v0.5H242v-0.5h0.9
		c0.1-1,0.2-2,0.2-3.1v-2c0-1.1-0.1-2.1-0.2-3.1H242v-0.5c1.1,0,2.2-0.1,3.2-0.3l-0.2,1.6c0.2-0.4,0.5-0.8,0.9-1.1
		c0.4-0.3,0.9-0.5,1.3-0.5c0.5,0,0.9,0.2,1.3,0.6c0.4,0.4,0.5,0.8,0.5,1.4V52.8z M226.3,53.8c0-0.9-0.2-1.6-0.5-2.2
		c-0.3-0.5-0.8-0.8-1.5-0.8c-0.7,0-1.2,0.3-1.5,0.8c-0.3,0.5-0.5,1.3-0.5,2.2H226.3z M228.3,57.9c-0.6,0.8-1.2,1.4-1.7,1.7
		c-0.6,0.3-1.3,0.4-2.4,0.4c-1.3,0-2.3-0.4-3-1.3c-0.7-0.9-1.1-2.1-1.1-3.5c0-1.5,0.4-2.6,1.1-3.5c0.7-0.9,1.7-1.3,3-1.3
		c1.1,0,2.1,0.4,2.9,1.3c0.8,0.8,1.2,1.8,1.2,3c-0.9-0.1-1.9-0.2-2.9-0.2h-3.2v0.8c0,1.2,0.2,2.2,0.6,3.1c0.4,0.8,1,1.3,1.9,1.3
		c0.8,0,1.4-0.1,1.9-0.4c0.5-0.3,0.9-0.8,1.3-1.4L228.3,57.9z M205.4,48.2l-1.1,0.6l-1.1-0.6v-1.2l1.1-0.6l1.1,0.6V48.2z
		 M206.4,59.7h-4.1v-0.5h0.9c0.1-1,0.2-2,0.2-3.1v-2c0-1.1-0.1-2.1-0.2-3.1h-0.9v-0.5c1.1,0,2.2-0.1,3.2-0.3
		c-0.1,1.2-0.2,2.5-0.2,3.9v2c0,1.1,0.1,2.1,0.2,3.1h0.9V59.7z M188.6,59.7h-4.1v-0.5h0.9c0.1-1,0.2-2,0.2-3.1V48
		c0-1.1-0.1-2.1-0.2-3.1h-0.9v-0.5c1.1,0,2.2-0.1,3.2-0.3c-0.1,1.2-0.2,2.5-0.2,3.9v8.2c0,1.1,0.1,2.1,0.2,3.1h0.9V59.7z
		 M168.8,53.8c0-0.9-0.2-1.6-0.5-2.2s-0.8-0.8-1.5-0.8c-0.7,0-1.2,0.3-1.5,0.8c-0.3,0.5-0.4,1.3-0.5,2.2H168.8z M170.9,57.9
		c-0.6,0.8-1.2,1.4-1.7,1.7c-0.6,0.3-1.3,0.4-2.4,0.4c-1.3,0-2.3-0.4-3-1.3c-0.7-0.9-1.1-2.1-1.1-3.5c0-1.5,0.4-2.6,1.1-3.5
		c0.7-0.9,1.7-1.3,3-1.3c1.1,0,2.1,0.4,2.9,1.3c0.8,0.8,1.2,1.8,1.2,3c-0.9-0.1-1.9-0.2-2.9-0.2h-3.2v0.8c0,1.2,0.2,2.2,0.6,3.1
		c0.4,0.8,1,1.3,1.9,1.3c0.8,0,1.4-0.1,1.9-0.4c0.5-0.3,0.9-0.8,1.3-1.4L170.9,57.9z M148.9,59.2c-0.6,0.5-1.2,0.8-2,0.8
		c-0.6,0-1.1-0.2-1.5-0.5c-0.4-0.3-0.6-0.7-0.6-1.3v-7.2H144v-0.5h0.9V49c0.2,0,0.5-0.2,0.9-0.6c0.4-0.4,0.6-0.7,0.5-0.9h0.5v3.1
		h2.1v0.5h-2.1v6.2c0,0.4,0,0.7,0,0.9c0,0.2,0.1,0.5,0.2,0.7c0.1,0.2,0.3,0.3,0.6,0.3c0.2,0,0.3-0.1,0.5-0.2
		c0.2-0.1,0.3-0.2,0.4-0.4h0.3V59.2z M127.6,58.2v-2.8c-0.6-0.5-1.4-0.7-2.1-0.7c-0.5,0-0.9,0.2-1.3,0.7c-0.3,0.5-0.5,1-0.5,1.7
		c0,0.7,0.2,1.2,0.5,1.7c0.3,0.5,0.7,0.7,1.3,0.7c0.4,0,0.8-0.1,1.2-0.4C127.1,58.9,127.4,58.6,127.6,58.2 M130.6,59.7h-1.3
		c-0.7,0-1.2-0.3-1.6-0.9c-0.3,0.3-0.7,0.6-1.2,0.8c-0.5,0.2-0.9,0.3-1.3,0.3c-1.1,0-1.9-0.3-2.5-0.8c-0.6-0.5-1-1.2-1-2.2
		c0-0.9,0.3-1.7,1-2.2c0.6-0.5,1.5-0.8,2.5-0.8c0.8,0,1.6,0.2,2.3,0.7v-2.1c0-0.6-0.1-1.1-0.4-1.4c-0.3-0.4-0.7-0.5-1.2-0.5
		c-0.6,0-1.1,0.2-1.5,0.5c-0.4,0.4-0.5,0.8-0.5,1.4h-1.5c0-0.8,0.4-1.4,1.1-1.8c0.7-0.4,1.5-0.7,2.5-0.7c1.1,0,1.9,0.3,2.6,0.8
		c0.7,0.5,1,1.3,1,2.2v4.9c0,0.7,0.4,1,1.1,1V59.7z M253.6,15.2l-3.2-9.5l-2.8,9.5H253.6z M261.6,24.6h-7.1v-0.8h1.6
		c-0.4-1.7-0.8-3.4-1.3-4.8l-1-2.9h-6.5l-0.9,2.9c-0.5,1.6-0.9,3.2-1.1,4.8h1.6v0.8h-4.8v-0.8h1.6c0.7-1.5,1.3-3.1,1.8-4.8l4.1-13.6
		c0.5-1.8,0.9-3.5,1.2-5.3h1.1c0.4,1.9,0.9,3.6,1.4,5.3l4.5,13.6c0.6,1.7,1.2,3.3,2,4.8h1.6V24.6z M236.4,1.3h-2
		c-0.2,1.5-0.3,3.1-0.3,4.8v18.5h-1.7l-14-22.4c-0.2,1.2-0.2,2.5-0.2,4v12.8c0,1.7,0.1,3.3,0.3,4.8h2v0.8H215v-0.8h2
		c0.2-1.5,0.3-3.1,0.3-4.8V6.1c0-1.7-0.1-3.3-0.3-4.8h-2V0.5h6.7c0.8,1.6,1.7,3.2,2.7,4.8l8.9,14.3V6.1c0-1.7-0.1-3.3-0.3-4.8h-2
		V0.5h5.5V1.3z M208.3,24.6h-8.1v-0.8h2c0.2-1.5,0.3-3.1,0.3-4.8V6.1c0-1.7-0.1-3.3-0.3-4.8h-2V0.5h8.1v0.8h-2
		c-0.2,1.5-0.3,3.1-0.3,4.8v12.8c0,1.7,0.1,3.3,0.3,4.8h2V24.6z M193.5,6.5h-0.8c0-1.4-0.4-2.6-1.1-3.6c-0.7-1-1.7-1.5-2.9-1.5h-2.9
		c-0.2,1.5-0.3,3.1-0.3,4.8v12.8c0,1.7,0.1,3.3,0.3,4.8h2v0.8h-8.1v-0.8h2c0.2-1.5,0.3-3.1,0.3-4.8V6.1c0-1.7-0.1-3.3-0.3-4.8h-2.9
		c-1.2,0-2.1,0.5-2.9,1.5c-0.7,1-1.1,2.3-1.1,3.6h-0.8v-6h19.4V6.5z M167.4,6.5h-0.8c0-1.4-0.4-2.6-1.1-3.6c-0.7-1-1.7-1.5-2.9-1.5
		h-4.1c-0.2,1.5-0.3,3.1-0.3,4.8v5.6h5.7c0.3,0,0.6-0.1,0.9-0.3c0.2-0.2,0.4-0.5,0.4-0.9V9.7h0.8v4.8h-0.8v-0.8
		c0-0.3-0.1-0.6-0.4-0.9c-0.2-0.2-0.5-0.3-0.9-0.3h-5.7v6.4c0,1.7,0.1,3.3,0.3,4.8h2v0.8h-8.1v-0.8h2c0.2-1.5,0.3-3.1,0.3-4.8V6.1
		c0-1.7-0.1-3.3-0.3-4.8h-2V0.5h14.9V6.5z M138.2,15.2L135,5.7l-2.8,9.5H138.2z M146.2,24.6h-7.1v-0.8h1.6c-0.4-1.7-0.8-3.4-1.3-4.8
		l-1-2.9h-6.5l-0.9,2.9c-0.5,1.6-0.9,3.2-1.1,4.8h1.6v0.8h-4.8v-0.8h1.6c0.7-1.5,1.3-3.1,1.8-4.8l4.1-13.6c0.5-1.8,0.9-3.5,1.2-5.3
		h1.1c0.4,1.9,0.9,3.6,1.4,5.3l4.5,13.6c0.6,1.7,1.2,3.3,2,4.8h1.6V24.6z M120.6,24.6h-8.1v-0.8h2c0.2-1.5,0.3-3.1,0.3-4.8v-6.4
		h-10.3v6.4c0,1.7,0.1,3.3,0.3,4.8h2v0.8h-8.1v-0.8h2c0.2-1.5,0.3-3.1,0.3-4.8V6.1c0-1.7-0.1-3.3-0.3-4.8h-2V0.5h8.1v0.8h-2
		c-0.2,1.5-0.3,3.1-0.3,4.8v5.6h10.3V6.1c0-1.7-0.1-3.3-0.3-4.8h-2V0.5h8.1v0.8h-2c-0.2,1.5-0.3,3.1-0.3,4.8v12.8
		c0,1.7,0.1,3.3,0.3,4.8h2V24.6z M104.6,60l1.2-2.2h-3.4c-1.1-1.9-2.1-3.9-3-5.9c-0.9-2-1.8-4-2.6-6.1L84.7,12
		c-1.4-3.8-2.5-7.8-3.2-12h-4.7H57.4l-0.8,2.2h5.1c-0.3,2-0.7,4-1.2,6c-0.5,2-1.1,4-1.8,6L52.8,32H25.4l6.1-17.8c0.7-2,1.5-4,2.4-6
		c0.9-2,1.9-4,3-6h5.1L42.7,0H20.6l-0.8,2.2h5.1c-0.3,2-0.7,4-1.2,6c-0.5,2-1.1,4-1.8,6L11.2,45.8c-0.7,2-1.5,4-2.4,6
		c-0.9,2-1.9,4-3,6H0.8L0,60h22.1l0.8-2.2h-5.1c0.3-2,0.7-4,1.2-6c0.5-2,1.1-4,1.8-6l3.9-11.4H52l-3.9,11.4c-0.7,2-1.5,4-2.4,6
		c-0.9,2-1.9,4-3,6h-5.1L36.9,60h16.5H59h6l0-2.2h-3.4c0.5-4,1.5-8,2.9-12l3.9-11.4h14.8l3.7,11.4c1.3,4.1,2.5,8,3.1,12h-3.4l0,2.2
		H104.6z M76.4,2.2c-0.6,3.4-1.5,6.6-2.6,9.8l-6.9,20h-4.6l6.1-17.8c0.7-2,1.5-4,2.4-6c0.9-2,1.9-4,3-6H76.4z M66.1,34.4l-3.9,11.4
		c-0.8,2.1-1.6,4.1-2.5,6.1c-0.9,2-1.8,4-2.9,5.9h-2.1c0.3-2,0.7-4,1.2-6c0.5-2,1.1-4,1.8-6l3.9-11.4H66.1z M69.2,32l6.2-17.9
		L82.2,32H69.2z M96.1,33.5l175.4,0v0.8h-175L96.1,33.5z"/>
</g>
<g>
</g>
<g>
</g>
<g>
</g>
<g>
</g>
<g>
</g>
</svg>
