<?xml version="1.0" encoding="utf-8"?>
<!-- Generator: Adobe Illustrator 21.0.0, SVG Export Plug-In . SVG Version: 6.00 Build 0)  -->
<svg version="1.1" id="Warstwa_1" xmlns="http://www.w3.org/2000/svg" xmlns:xlink="http://www.w3.org/1999/xlink" x="0px" y="0px"
	 viewBox="0 0 166 60" style="enable-background:new 0 0 166 60;" xml:space="preserve">
<style type="text/css">
	.st0{fill:#218D9B;}
	.st1{fill:#FFFFFF;}
</style>
<g>
	<rect y="0.3" class="st0" width="166" height="59.7"/>
	<g>
		<g>
			<g>
				<path class="st1" d="M71.1,50.3c0-4,0-7.9,0-11.9h4.1c1.4,0,3.1,0.7,3.1,2.3V48c0,1.6-1.7,2.3-3.2,2.3H71.1z M77.4,40.7
					c0-1-1.4-1.4-2.2-1.4h-0.1h0H72v10.2h3.1c0.8,0,2-0.3,2.3-1.1C77.5,48,77.4,42.2,77.4,40.7z"/>
				<path class="st1" d="M80.9,44h5.5v0.9h-5.5c0,0.5-0.1,3.2,0.1,3.6c0.3,0.8,1.5,1.1,2.3,1.1h3.1v0.9h-3.1v0
					c-1.4,0-3.2-0.7-3.2-2.3v-9.6c2.1,0,4.2,0,6.3,0v0.8h-5.5V44z"/>
				<path class="st1" d="M95.2,48.1c0,1.1-0.8,1.8-1.9,2.1c-0.9,0.3-2.4,0.3-3.3,0c-1.1-0.3-2-1-2-2.1v-7.4c0-1.2,1.1-2,2.3-2.2
					c0.9-0.2,2.3-0.2,3.2,0.1c1,0.3,1.7,1,1.7,2.1h-0.8c0-0.6-0.5-1.1-1.1-1.3c-0.8-0.3-1.9-0.3-2.8-0.1c-0.9,0.2-1.6,0.6-1.6,1.4
					v7.4c0,0.7,0.6,1.1,1.4,1.3c0.8,0.2,2.1,0.2,2.9,0c0.7-0.2,1.3-0.6,1.3-1.3L95.2,48.1z"/>
				<path class="st1" d="M96.8,40.6c0-3,7.1-3,7.1,0v7.6c0,3.1-7.1,3.1-7.1,0V40.6z M103.1,48.1l0-7.5c0-2-5.5-2-5.5,0l0,7.5
					c0,0.2,0,0.4,0.1,0.4c0.5,1.5,4.8,1.5,5.3,0C103.1,48.4,103.1,48.3,103.1,48.1z"/>
				<path class="st1" d="M106.5,45.8v4.5h-0.8c0-3.9,0-7.9,0-11.9h3.2c0.4,0,3.2,0,3.2,2.3v2.8c0,0.9-0.7,1.7-1.6,1.9
					c0.9,0.2,1.6,0.9,1.6,1.8v3h-0.8v-3c0-1.2-1.5-1.5-2.4-1.5H106.5z M111.2,40.7c0-1.1-1.4-1.5-2.3-1.5h-2.4V45h2.3
					c0.9,0,2.4-0.3,2.4-1.5V40.7z"/>
			</g>
			<g>
				<g>
					<path class="st1" d="M121.7,40.5c0-1.7-3.2-1.8-4.3-0.7c-0.7,0.7-0.9,2.2-0.2,3c0.5,0.6,1.4,0.8,2.2,1c2,0.5,3.6,1.4,3.6,3.7
						c0,1-0.5,1.7-1.1,2.3c-1.1,0.9-2.9,0.9-4.3,0.5c-1-0.3-1.7-1.1-1.7-2.2l0.8,0c0,0.7,0.6,1.3,1.3,1.5c1.1,0.3,2.4,0.3,3.3-0.5
						c0.5-0.4,0.8-0.9,0.8-1.6c0-1.8-1.5-2.6-2.9-2.9c-1-0.3-2-0.6-2.6-1.2c-1-1.1-0.9-3.2,0.2-4.2c1.5-1.4,5.7-1.1,5.7,1.4
						L121.7,40.5z"/>
					<path class="st1" d="M125.1,44.8c0,1.7,0,3.7,0,5.5h-0.8V38.4h0.8V44h5.3v-5.5h0.8v11.9h-0.8v-5.5H125.1z"/>
					<path class="st1" d="M133,40.6c0-3,7.1-3,7.1,0v7.6c0,3.1-7.1,3.1-7.1,0V40.6z M139.3,48.1l0-7.5c0-2-5.5-2-5.5,0l0,7.5
						c0,0.2,0,0.4,0.1,0.4c0.5,1.5,4.8,1.5,5.3,0C139.3,48.4,139.3,48.3,139.3,48.1z"/>
					<path class="st1" d="M142.7,44h5.5v0.9h-5.5c0,0.5-0.1,3.2,0.1,3.6c0.3,0.8,1.5,1.1,2.3,1.1h3.1v0.9H145v0
						c-1.4,0-3.2-0.7-3.2-2.3v-9.6c2.1,0,4.2,0,6.3,0v0.8h-5.5V44z"/>
					<path class="st1" d="M155.2,40.5c0-1.7-3.2-1.8-4.3-0.7c-0.7,0.7-0.9,2.2-0.2,3c0.5,0.6,1.4,0.8,2.2,1c2,0.5,3.6,1.4,3.6,3.7
						c0,1-0.5,1.7-1.1,2.3c-1.1,0.9-2.9,0.9-4.3,0.5c-1-0.3-1.7-1.1-1.7-2.2l0.8,0c0,0.7,0.6,1.3,1.3,1.5c1.1,0.3,2.4,0.3,3.3-0.5
						c0.5-0.4,0.8-0.9,0.8-1.6c0-1.8-1.5-2.6-2.9-2.9c-1-0.3-2-0.6-2.6-1.2c-1-1.1-0.9-3.2,0.2-4.2c1.5-1.4,5.7-1.1,5.7,1.4
						L155.2,40.5z"/>
				</g>
			</g>
		</g>
		<g>
			<g>
				<g>
					<g>
						<g>
							<path class="st1" d="M52.2,16.4c0.1-6-11.2-6.2-15.1-2.6c-2.5,2.4-3,7.6-0.7,10.4c1.7,2.1,5,2.9,7.8,3.6
								c7,1.8,12.7,4.8,12.6,13c-0.1,3.4-1.6,6.1-3.9,8.1c-3.8,3.2-10.4,3.2-15,1.7c-3.5-1.2-6.1-3.9-6-7.6l2.9,0.1
								c0.1,2.5,2.2,4.5,4.5,5.2c3.9,1.1,8.4,1.1,11.7-1.6c1.7-1.4,2.7-3.3,2.8-5.8c0.1-6.4-5.4-9-10.4-10.3c-3.6-0.9-7-2-9.1-4.2
								c-3.6-3.9-3-11.3,0.7-14.7c5.4-5.1,20.2-4,20.1,4.8L52.2,16.4z"/>
						</g>
					</g>
					<g>
						<g>
							<path class="st1" d="M9.5,51c0-14,0-27.9,0-41.9H24c4.8,0,10.9,2.4,10.9,8.1v25.7c0,5.7-6.1,8.1-11.3,8.1H9.5z M31.8,17.2
								c0-3.6-4.8-5.1-7.9-5.1h-0.2h-0.1H12.5V48h11c2.8,0,7-1,8-3.8C32,42.9,31.8,22.3,31.8,17.2z"/>
						</g>
					</g>
				</g>
			</g>
			<g>
				<g>
					<path class="st1" d="M59.2,13.5V14h-1v2.5h-0.6V14h-1v-0.5H59.2z M62.4,16.5l-0.1-1.8c0-0.2,0-0.5,0-0.8h0
						c-0.1,0.3-0.2,0.6-0.3,0.9l-0.5,1.7h-0.6l-0.5-1.7c-0.1-0.2-0.1-0.6-0.2-0.8h0c0,0.3,0,0.6,0,0.8L60,16.5h-0.6l0.2-3h0.9
						l0.5,1.5c0.1,0.2,0.1,0.4,0.2,0.8h0c0.1-0.3,0.1-0.5,0.2-0.7l0.5-1.5h0.9l0.2,3H62.4z"/>
				</g>
			</g>
		</g>
	</g>
</g>
<g>
</g>
<g>
</g>
<g>
</g>
<g>
</g>
<g>
</g>
</svg>
