<?xml version="1.0" encoding="utf-8"?>
<!-- Generator: Adobe Illustrator 21.0.0, SVG Export Plug-In . SVG Version: 6.00 Build 0)  -->
<svg version="1.1" id="Warstwa_1" xmlns="http://www.w3.org/2000/svg" xmlns:xlink="http://www.w3.org/1999/xlink" x="0px" y="0px"
	 viewBox="0 0 180.7 60" style="enable-background:new 0 0 180.7 60;" xml:space="preserve">
<style type="text/css">
	.st0{fill:#CD141D;}
	.st1{fill:#6A6C6B;}
</style>
<g>
	<polygon class="st0" points="0.3,28.9 0.3,0.2 13.4,0.2 13.4,4.7 5.1,4.7 5.1,11.9 11.5,11.9 11.5,16.4 5.1,16.4 5.1,24.4 
		13.9,24.4 13.9,28.9 	"/>
	<path class="st1" d="M17.3,28.9V0.2h6.4l3.3,15.1c0.1,0.6,0.2,1.4,0.4,2.5c0.1,1.1,0.2,2.4,0.3,3.9c0-1.4,0.1-2.7,0.2-3.8
		c0.1-1.1,0.2-2,0.4-2.6l3.3-15h6.3v28.6h-4.4l0-18.5c0-0.2,0-0.9,0.1-1.9c0.1-1,0.1-2.4,0.3-4.3c-0.1,0.7-0.3,1.4-0.4,2.3
		c-0.2,0.9-0.4,2.1-0.7,3.7l-3.8,18.7h-2.5l-3.8-18.7c-0.3-1.5-0.5-2.8-0.7-3.7c-0.2-0.9-0.3-1.7-0.4-2.3c0.1,1.8,0.2,3.3,0.3,4.3
		c0.1,1,0.1,1.6,0.1,1.9l0,18.5H17.3z"/>
	<path class="st1" d="M42.5,28.9V0.2h5.3c2.1,0,3.6,0.1,4.5,0.3c0.9,0.2,1.7,0.5,2.3,1C55.4,2.1,56,2.9,56.4,4
		c0.4,1.1,0.7,2.2,0.7,3.6c0,1.4-0.3,2.6-0.8,3.6c-0.5,1-1.3,1.9-2.3,2.6c1.3,0.8,2.2,1.8,2.8,2.9c0.6,1.1,0.9,2.5,0.9,4
		c0,1-0.1,2-0.4,2.9c-0.3,0.9-0.7,1.7-1.2,2.5c-0.7,1-1.7,1.7-3.1,2.2c-1.3,0.4-3.2,0.7-5.8,0.7H42.5z M47.3,11.9H48
		c1.6,0,2.7-0.3,3.4-0.9c0.7-0.6,1.1-1.7,1.1-3.1c0-1.3-0.3-2.3-0.9-2.9c-0.6-0.6-1.7-0.9-3.1-0.9c-0.3,0-0.5,0-0.7,0
		c-0.1,0-0.3,0-0.4,0V11.9z M47.3,24.8c0.1,0,0.3,0,0.4,0c0.1,0,0.4,0,0.6,0c1.6,0,2.8-0.3,3.5-1c0.7-0.7,1.1-1.8,1.1-3.4
		c0-1.5-0.3-2.7-1-3.4c-0.7-0.7-1.8-1-3.3-1c-0.2,0-0.6,0-1.2,0.1h-0.1V24.8z"/>
	<path class="st1" d="M77.2,28.9h-4.9L68.9,17c-0.3,0-0.6,0.1-1,0.1c-0.4,0-0.7,0-1,0h-0.7v11.8h-4.8V0.2h6.4c1.8,0,3.2,0.1,4.2,0.4
		c0.9,0.2,1.7,0.6,2.5,1.2c0.9,0.7,1.5,1.6,2,2.8c0.5,1.2,0.7,2.6,0.7,4c0,1.7-0.3,3.2-1,4.5c-0.7,1.3-1.6,2.3-2.9,3.1L77.2,28.9z
		 M66.3,13.1c0.1,0,0.3,0,0.4,0c0.1,0,0.4,0,0.7,0c1.8,0,3.1-0.4,3.8-1.1c0.8-0.7,1.1-1.9,1.1-3.6c0-1.5-0.4-2.6-1.1-3.3
		c-0.7-0.7-1.9-1-3.5-1c-0.3,0-0.7,0-1.3,0.1c-0.1,0-0.1,0-0.1,0V13.1z"/>
	<path class="st1" d="M80.3,14.6c0-4.9,0.7-8.6,2.1-11.1c1.4-2.5,3.5-3.8,6.3-3.8s4.9,1.3,6.3,3.8c1.4,2.5,2.1,6.2,2.1,11.1
		c0,4.9-0.7,8.6-2.1,11.2c-1.4,2.5-3.5,3.8-6.3,3.8s-4.9-1.3-6.3-3.8C81,23.2,80.3,19.5,80.3,14.6 M85.1,14.6c0,3.7,0.3,6.4,0.9,8.1
		c0.6,1.7,1.5,2.6,2.8,2.6s2.2-0.9,2.8-2.6c0.6-1.7,0.9-4.4,0.9-8.1c0-3.6-0.3-6.3-0.9-8.1c-0.6-1.7-1.5-2.6-2.8-2.6
		S86.6,4.8,86,6.5C85.4,8.2,85.1,10.9,85.1,14.6"/>
	<rect x="101.1" y="0.2" class="st1" width="4.8" height="28.6"/>
	<path class="st1" d="M110.8,28.9V0.2h5.9c1.9,0,3.4,0.2,4.5,0.6c1.1,0.4,2,1.1,2.8,2.1c0.9,1.2,1.6,2.7,2,4.5
		c0.4,1.8,0.6,4.2,0.6,7c0,2.9-0.2,5.2-0.6,7.1c-0.4,1.8-1.1,3.4-2,4.5c-0.8,1-1.7,1.7-2.8,2.1c-1.1,0.4-2.6,0.6-4.5,0.6H110.8z
		 M115.7,24.7h1.2c1,0,1.7-0.1,2.2-0.2c0.5-0.2,0.9-0.4,1.2-0.8c0.5-0.7,0.9-1.8,1.2-3.3c0.2-1.5,0.4-3.4,0.4-5.8
		c0-2.4-0.1-4.3-0.4-5.7c-0.2-1.5-0.6-2.6-1.2-3.3c-0.3-0.4-0.7-0.7-1.2-0.8c-0.5-0.2-1.2-0.2-2.2-0.2h-1.2V24.7z"/>
	<polygon class="st1" points="130.5,28.9 130.5,0.2 143.7,0.2 143.7,4.7 135.3,4.7 135.3,11.9 141.7,11.9 141.7,16.4 135.3,16.4 
		135.3,24.4 144.2,24.4 144.2,28.9 	"/>
	<path class="st1" d="M163.3,28.9h-4.9L155,17c-0.3,0-0.6,0.1-1,0.1c-0.4,0-0.7,0-1,0h-0.7v11.8h-4.8V0.2h6.4c1.8,0,3.2,0.1,4.2,0.4
		c0.9,0.2,1.7,0.6,2.5,1.2c0.9,0.7,1.5,1.6,2,2.8c0.5,1.2,0.7,2.6,0.7,4c0,1.7-0.3,3.2-1,4.5c-0.7,1.3-1.6,2.3-2.9,3.1L163.3,28.9z
		 M152.4,13.1c0.1,0,0.3,0,0.4,0c0.1,0,0.4,0,0.7,0c1.8,0,3.1-0.4,3.8-1.1c0.8-0.7,1.1-1.9,1.1-3.6c0-1.5-0.4-2.6-1.1-3.3
		c-0.7-0.7-1.9-1-3.5-1c-0.3,0-0.7,0-1.3,0.1c-0.1,0-0.1,0-0.1,0V13.1z"/>
	<path class="st1" d="M170.3,28.9V17l-5.6-16.8h4.8l2.7,8.9c0.1,0.4,0.2,1,0.3,1.7c0.1,0.7,0.2,1.4,0.2,2.3c0.1-1,0.2-1.8,0.3-2.5
		c0.1-0.7,0.2-1.2,0.3-1.5l2.7-8.9h4.7L175.1,17v11.9H170.3z"/>
	<path class="st0" d="M0.2,52.8l3.9-0.6c0.2,1.3,0.6,2.3,1,2.9c0.5,0.6,1.1,0.9,1.8,0.9c0.8,0,1.4-0.2,1.8-0.7
		c0.4-0.5,0.7-1.1,0.7-1.8c0-1.4-1.5-3.4-4.5-6.1c-0.5-0.4-0.8-0.7-1-1c-1-0.9-1.8-1.9-2.3-3.1c-0.5-1.1-0.8-2.3-0.8-3.5
		c0-1.8,0.6-3.3,1.8-4.5c1.2-1.2,2.7-1.7,4.5-1.7c1.7,0,3.1,0.5,4.2,1.6c1.1,1,1.7,2.5,2,4.4l-3.9,0.6c-0.1-1-0.4-1.8-0.8-2.3
		c-0.4-0.5-0.9-0.8-1.6-0.8c-0.7,0-1.2,0.2-1.6,0.7c-0.4,0.5-0.6,1.1-0.6,1.8c0,0.7,0.2,1.3,0.6,2c0.4,0.6,1.2,1.5,2.5,2.7
		c0.2,0.2,0.5,0.4,0.8,0.8c3.3,3,5,5.8,5,8.2c0,1.9-0.6,3.5-1.8,4.7c-1.2,1.2-2.8,1.8-4.7,1.8c-1.9,0-3.5-0.6-4.7-1.8
		C1.1,56.8,0.4,55.1,0.2,52.8"/>
	<polygon class="st1" points="16.8,59.4 16.8,34.1 28.4,34.1 28.4,38.1 21,38.1 21,44.4 26.7,44.4 26.7,48.4 21,48.4 21,55.4 
		28.9,55.4 28.9,59.4 	"/>
	<path class="st1" d="M45.8,59.4h-4.3l-3-10.5c-0.3,0-0.5,0-0.9,0.1c-0.3,0-0.6,0-0.9,0h-0.6v10.4h-4.3V34.1h5.6
		c1.6,0,2.9,0.1,3.7,0.3c0.8,0.2,1.5,0.6,2.2,1c0.8,0.6,1.4,1.4,1.8,2.5c0.4,1.1,0.7,2.3,0.7,3.6c0,1.5-0.3,2.9-0.9,4
		c-0.6,1.1-1.4,2-2.6,2.7L45.8,59.4z M36.1,45.5c0.1,0,0.3,0,0.4,0c0.1,0,0.3,0,0.6,0c1.6,0,2.7-0.3,3.4-1c0.7-0.6,1-1.7,1-3.2
		c0-1.4-0.3-2.3-1-3c-0.6-0.6-1.7-0.9-3.1-0.9c-0.2,0-0.6,0-1.1,0.1c-0.1,0-0.1,0-0.1,0V45.5z"/>
	<path class="st1" d="M52.5,59.4l-4.9-25.3h4.1l2.5,13.7c0.1,0.8,0.3,1.7,0.4,2.8c0.1,1.1,0.2,2.3,0.2,3.5c0.1-1.3,0.2-2.5,0.3-3.5
		c0.1-1,0.2-1.9,0.4-2.7L58,34.1h4l-4.8,25.3H52.5z"/>
	<rect x="64.6" y="34.1" class="st1" width="4.2" height="25.3"/>
	<path class="st1" d="M82.5,42.3c0-1.6-0.3-2.8-0.7-3.7c-0.5-0.8-1.2-1.3-2.1-1.3c-1.1,0-1.9,0.8-2.4,2.3c-0.5,1.5-0.8,3.9-0.8,7.1
		c0,3.3,0.3,5.7,0.8,7.2c0.5,1.5,1.4,2.3,2.5,2.3c1,0,1.7-0.5,2.2-1.4c0.5-0.9,0.7-2.3,0.7-4.1v-0.4h3.9v0.4c0,2.9-0.6,5.1-1.8,6.8
		c-1.2,1.6-2.9,2.5-5,2.5c-2.4,0-4.3-1.1-5.6-3.4c-1.3-2.2-1.9-5.5-1.9-9.9c0-4.3,0.6-7.6,1.9-9.8c1.3-2.2,3.1-3.3,5.6-3.3
		c2.1,0,3.7,0.8,4.9,2.3c1.2,1.5,1.8,3.6,1.8,6.4H82.5z"/>
	<polygon class="st1" points="89.6,59.4 89.6,34.1 101.2,34.1 101.2,38.1 93.8,38.1 93.8,44.4 99.5,44.4 99.5,48.4 93.8,48.4 
		93.8,55.4 101.7,55.4 101.7,59.4 	"/>
	<path class="st1" d="M103.6,52.8l3.9-0.6c0.2,1.3,0.6,2.3,1,2.9c0.5,0.6,1.1,0.9,1.8,0.9s1.4-0.2,1.8-0.7c0.4-0.5,0.7-1.1,0.7-1.8
		c0-1.4-1.5-3.4-4.5-6.1c-0.5-0.4-0.8-0.7-1-1c-1-0.9-1.8-1.9-2.3-3.1c-0.5-1.1-0.8-2.3-0.8-3.5c0-1.8,0.6-3.3,1.8-4.5
		c1.2-1.2,2.7-1.7,4.5-1.7c1.7,0,3.1,0.5,4.2,1.6c1.1,1,1.7,2.5,2,4.4l-3.9,0.6c-0.1-1-0.4-1.8-0.8-2.3c-0.4-0.5-0.9-0.8-1.6-0.8
		c-0.7,0-1.2,0.2-1.6,0.7c-0.4,0.5-0.6,1.1-0.6,1.8c0,0.7,0.2,1.3,0.6,2c0.4,0.6,1.2,1.5,2.5,2.7c0.2,0.2,0.5,0.4,0.8,0.8
		c3.3,3,5,5.8,5,8.2c0,1.9-0.6,3.5-1.8,4.7c-1.2,1.2-2.8,1.8-4.7,1.8c-1.9,0-3.5-0.6-4.7-1.8C104.6,56.8,103.9,55.1,103.6,52.8"/>
</g>
<g>
</g>
<g>
</g>
<g>
</g>
<g>
</g>
<g>
</g>
</svg>
