<?xml version="1.0" encoding="utf-8"?>
<!-- Generator: Adobe Illustrator 21.1.0, SVG Export Plug-In . SVG Version: 6.00 Build 0)  -->
<svg version="1.1" id="Warstwa_1" xmlns="http://www.w3.org/2000/svg" xmlns:xlink="http://www.w3.org/1999/xlink" x="0px" y="0px"
	 viewBox="0 0 385.8 100" style="enable-background:new 0 0 385.8 100;" xml:space="preserve">
<style type="text/css">
	.st0{fill:#FFFFFF;}
</style>
<g>
	<path class="st0" d="M36.7,13.1h7.6V38H21.5V13.1h7.6v-1.1h-22v1.1h7.6V65H7.1v1.1h22V65h-7.6V39h22.7v26h-7.6v1.1h22V65h-7.6V13.1
		h7.6v-1.1h-22V13.1z M93.6,10.7H92L73.5,65h-6v1.1h14.7V65h-7.6L81.8,44h15.8l7.2,21.1l-7.6,0v1.1h21V65h-6.1L93.6,10.7z
		 M82.2,42.9l7.5-22.1l7.5,22.1H82.2z M127.1,13.1h7.6V65h-7.6v1.1h22V65h-7.6V38.8h5.5c1.6,0,3,0.3,4,0.9c1,0.6,1.8,1.5,2.5,2.5
		c0.6,1.1,1.1,2.3,1.4,3.6c0.3,1.4,0.7,2.8,1,4.2h0.8V26.6h-0.8c-0.5,2.3-1,4.1-1.5,5.6c-0.5,1.4-1.2,2.6-1.9,3.4
		c-0.8,0.8-1.7,1.4-2.7,1.7c-1,0.3-2.3,0.5-3.8,0.5h-4.4V13.1h11.3c1.9,0,3.5,0.3,4.8,0.8c1.3,0.5,2.5,1.3,3.4,2.3
		c1,1,1.8,2.3,2.5,3.8c0.7,1.5,1.3,3.2,1.9,5.2h0.8V12.1h-39.1V13.1z M180,26h0.8c0.8-3.1,1.7-5.5,2.8-7.2c1.1-1.7,2.2-3,3.3-3.8
		c1.2-0.8,2.3-1.3,3.4-1.5c1.1-0.2,2.2-0.3,3.1-0.3l4,0V65h-7.6v1.1h22V65h-7.6V13.1h4c0.9,0,1.9,0.1,3.1,0.3
		c1.1,0.2,2.3,0.7,3.4,1.5c1.2,0.8,2.3,2.1,3.3,3.8c1.1,1.7,2,4.2,2.8,7.2h0.8V12.1H180L180,26L180,26z M299.5,13.1h7.6v40.3h-0.1
		l-23.1-41.4h-14.6v1.1h7.6V65h-7.6v1.1h16.2V65h-7.6V16.3h0.1l28.8,50.9h1.4v-54h7.6v-1.1h-16.2V13.1z M364.8,65l-18.6-54.3h-1.6
		L326.1,65h-6v1.1h14.7V65h-7.6l7.2-21.1h15.8l7.2,21.1l-7.6,0v1.1h21V65H364.8z M334.8,42.9l7.5-22.1l7.5,22.1H334.8z M243.6,18.7
		c-0.8,0-1.4-4.8-1.4-7.9c0-3.2,0.6-7.9,1.4-7.9c0.8,0,1.4,4.8,1.4,7.9C245.1,13.9,244.4,18.7,243.6,18.7 M240,7.8
		c0,10.8,4.3,75.2,4.3,75.2s2.9-63.1,2.9-75.2C247.2-3.3,240-1.9,240,7.8"/>
	<path class="st0" d="M364.4,15.2h0.2c0.2-0.7,0.4-1.2,0.6-1.5c0.2-0.4,0.5-0.6,0.7-0.8c0.2-0.2,0.5-0.3,0.7-0.3c0.2,0,0.4,0,0.6,0
		h0.8v10.8h-1.5v0.3h4.5v-0.3h-1.5V12.5h0.8c0.2,0,0.4,0,0.6,0c0.2,0,0.5,0.1,0.7,0.3c0.2,0.2,0.5,0.4,0.7,0.8
		c0.2,0.4,0.4,0.9,0.6,1.5h0.2v-3l-8.8,0L364.4,15.2L364.4,15.2z M385.7,12.5v-0.3h-3.1l-2.6,8.5l-2.6-8.5h-3.2v0.3h1.5v10.8h-1.5
		v0.3h3.3v-0.3h-1.5V12.9l3.4,10.8l3.4-10.9v10.4h-1.5v0.3h4.5v-0.3h-1.5V12.5H385.7z"/>
	<path class="st0" d="M373.1,78.3v1.4h12.6v-1.4L373.1,78.3z M352.4,79.7H365v-1.4l-12.6,0V79.7z M331.7,79.7h12.6v-1.4l-12.6,0
		V79.7z M311,79.7h12.6v-1.4l-12.6,0V79.7z M290.2,79.7h12.6v-1.4l-12.6,0V79.7z M269.5,79.7h12.6v-1.4l-12.6,0V79.7z M248.8,79.7
		h12.6v-1.4l-12.6,0V79.7z M228,79.7h12.6v-1.4l-12.6,0V79.7z M207.3,79.7h12.6v-1.4l-12.6,0V79.7z M186.6,79.7h12.6v-1.4l-12.6,0
		V79.7z M165.8,79.7h12.6v-1.4l-12.6,0V79.7z M145.1,79.7h12.6v-1.4l-12.6,0V79.7z M124.4,79.7H137v-1.4l-12.6,0V79.7z M103.7,79.7
		h12.6v-1.4l-12.6,0V79.7z M82.9,79.7h12.6v-1.4l-12.6,0V79.7z M62.2,79.7h12.6v-1.4l-12.6,0V79.7z M41.5,79.7h12.6v-1.4l-12.6,0
		V79.7z M20.7,79.7h12.6v-1.4l-12.6,0V79.7z M0,79.7h12.6v-1.4L0,78.3V79.7z"/>
	<path class="st0" d="M289.3,94.9c-0.4,0-0.7,0-1-0.1v-3.9c0.2-0.1,0.6-0.1,1.1-0.1c1.3,0,2.1,0.6,2.1,2
		C291.5,94.1,290.7,94.9,289.3,94.9 M291.9,90.6c-0.5-0.5-1.4-0.8-2.5-0.8c-0.9,0-1.7,0.1-2.2,0.2v9.9h1.2v-4
		c0.3,0.1,0.6,0.1,0.9,0.1c1.1,0,2.1-0.4,2.8-1.1c0.5-0.5,0.7-1.2,0.7-2.1C292.7,91.8,292.4,91,291.9,90.6 M274.6,95.7
		c0,2.2-0.9,3.2-2.2,3.2c-1.2,0-2.1-1-2.1-3.2v-5.9h-1.2v5.9c0,3.1,1.4,4.3,3.2,4.3c2,0,3.4-1.3,3.4-4.3v-5.9h-1.2V95.7z
		 M254.1,98.9c-1.8,0-2.9-1.9-2.9-4.1c0-2.2,1-4.2,2.9-4.2c1.9,0,2.9,2.1,2.9,4.1C257,97.1,255.9,98.9,254.1,98.9 M254.1,89.6
		c-2.4,0-4.2,2.1-4.2,5.3c0,3,1.7,5.1,4.1,5.1c2.3,0,4.2-1.8,4.2-5.3C258.2,91.7,256.6,89.6,254.1,89.6 M236.2,94.5H235v-3.7
		c0.2-0.1,0.6-0.1,1.2-0.1c1.2,0,2.1,0.6,2.1,1.9C238.2,93.7,237.5,94.5,236.2,94.5 M237.7,95.1L237.7,95.1c1-0.4,1.7-1.3,1.7-2.6
		c0-0.8-0.3-1.5-0.7-1.9c-0.6-0.6-1.4-0.8-2.6-0.8c-0.8,0-1.6,0.1-2.2,0.2v9.9h1.2v-4.3h1.1c1.1,0,1.5,0.6,1.8,2
		c0.3,1.3,0.5,2.1,0.6,2.4h1.2c-0.2-0.4-0.4-1.4-0.7-2.8C238.8,96,238.4,95.3,237.7,95.1 M219.7,95.6h1.8v3
		c-0.3,0.1-0.8,0.3-1.6,0.3c-2.1,0-3.5-1.5-3.5-4.1c0-2.5,1.4-4,3.6-4c0.9,0,1.5,0.2,2,0.4l0.3-1.1c-0.4-0.2-1.2-0.5-2.3-0.5
		c-3,0-4.9,2.2-4.9,5.2c0,1.6,0.5,2.9,1.3,3.7c0.9,0.9,2,1.3,3.4,1.3c1.2,0,2.3-0.3,2.8-0.6v-4.8h-3V95.6z M188.8,95.1h3.5v-1.1
		h-3.5v-3.2h3.7v-1.1h-4.9v10h5.1v-1.1l-3.9,0L188.8,95.1L188.8,95.1z M173.1,89.8h-1.2v10h5v-1.1l-3.9,0V89.8z M159.3,99.8h1.2v-10
		h-1.2V99.8z M142.2,90.9h2.7v8.9h1.2v-8.9h2.8v-1.1h-6.7V90.9z M132.4,89.8H131l-1.2,2.4c-0.3,0.6-0.6,1.1-0.8,1.7h0
		c-0.2-0.5-0.5-1-0.8-1.7l-1.2-2.4h-1.4l2.7,5l-2.8,5.1h1.3l1.1-2.2c0.5-0.9,0.7-1.4,1-2l0,0c0.3,0.6,0.6,1.1,1,2l1.2,2.2h1.4
		l-2.8-5.2L132.4,89.8z M111.3,95.1h3.5v-1.1h-3.5v-3.2h3.7v-1.1h-4.9v10h5.1v-1.1l-3.9,0L111.3,95.1L111.3,95.1z M93.1,90.9h2.7
		v8.9H97v-8.9h2.8v-1.1h-6.7V90.9z"/>
</g>
</svg>
